<?xml version="1.0" encoding="UTF-8"?>
<svg id="Capa_2" data-name="Capa 2" xmlns="http://www.w3.org/2000/svg" viewBox="0 0 504.61 475.27">
  <defs>
    <style>
      .cls-1 {
        fill: #4875a4;
        fill-rule: evenodd;
        stroke-width: 0px;
      }
    </style>
  </defs>
  <g id="Capa_1-2" data-name="Capa 1">
    <path class="cls-1" d="m462.33,393.2c53.08-77.28,56.09-184.32,9.55-265.64C382.76-18.34,192.6-44.22,70.58,76.63l-2.47,3.46c.76,1.6-3.87,3.64,2.83.07,2.04-1.08,4.16-2.81-1.29.48-.51.31-.94-.5-1.54-.55-93.37,93.9-90.87,263.52,8.25,353.92,56.38-97.68,121.15-217.16,174.65-315.75h2.31c54.59,100.75,117.03,215.88,174.65,315.75,9.12-9,18.51-17.49,25.45-28.55"/>
    <path class="cls-1" d="m104.44,454.94l2.26,1.33,17.75-33.38c13.84-22.86,35.99-70.23,49.62-92.64,9.1-14.98,20.37-39.29,27.75-52.39l39.32-72.53c1.49-3.04,2.86-4.56,4.55-8.17,1.48-3.16,2.85-6.18,5.65-8.23,4.58,3.07,10.64,18.63,13.93,24.24l101.38,187.25c.81,2.11.74,2.25,1.86,4.37l27.41,51.31,2.31-1.16c4.77-2.52,7.38-5.3,11.57-8.1l-73.64-139.17c-1.95-3.62-3.32-6.66-5.01-10.03l-14.28-27.36c-1.89-3.72-3.01-6.45-5.01-10.03l-39.52-74.98c-1.7-2.6-1.01-.88-2.65-4.29l-17.19-33.7c-4.89,1.31-6.29,8.61-10.79,16.97-1.94,3.6-3.1,4.99-5.03,8.85l-14.73,29.22c-3.47,6.23-6.47,13.05-10.26,18.66-7.5,11.11-58.07,112.22-73.5,140.47l-45.29,85.4c4.18,2.8,6.79,5.57,11.57,8.1h0Z"/>
    <path class="cls-1" d="m228.29,283.27l-2.65.61c-.13.01-.65.22-.74-.03,0-.01-2.78-1.5-2.81,6.35-3.33,0-2.58.88-2.58-2.31-9.56,19.28-25.39,46.19-33.43,64.29-6.96,15.66-41.63,75.9-43.47,83.76l-17.35,32.38c14.4,7.62,13.08,10.1,20.6-2.53,2.11-3.54,3.28-5.89,5.23-9.8l21.57-40.88c14.34-30.45,32.64-62.16,47.84-92.11,2.02-3.98,3.48-7.21,5.38-10.81,3.96,2.65,4.23,4.92,6.56,9.64,3.36,6.83,16.71,29.9,17.73,34.31h2.31c1.19-4.47,23.88-38.1,25.45-43.95,4.29,1.14,4.45,4.15,6.56,8.48l56.28,112.58c3.7,7.4,6.71,13.42,10.41,20.82,2.71,5.43,8.82,16.04,10.02,21.2,6.87-2.84-1,2.16,16.19-6.94l-67.43-130.27c-4.76-9.05-27.99-55.57-32.04-59.41-3.89,4.47-8.56,14.5-12.95,21.75-2.48,4.11-10.15,19.63-13.65,22.2-3.49-2.56-13.67-23.4-17.13-29.14-2.07-3.42-3.56-7.3-5.91-10.19h0Z"/>
  </g>
</svg>