<?xml version="1.0" encoding="UTF-8"?>
<!DOCTYPE svg PUBLIC "-//W3C//DTD SVG 1.1//EN" "http://www.w3.org/Graphics/SVG/1.1/DTD/svg11.dtd">
<!-- Creator: CorelDRAW 2020 (64-Bit) -->
<svg xmlns="http://www.w3.org/2000/svg" xml:space="preserve" width="204.026mm" height="33.7142mm" version="1.1" style="shape-rendering:geometricPrecision; text-rendering:geometricPrecision; image-rendering:optimizeQuality; fill-rule:evenodd; clip-rule:evenodd"
viewBox="0 0 20342.8 3361.53"
 xmlns:xlink="http://www.w3.org/1999/xlink"
 xmlns:xodm="http://www.corel.com/coreldraw/odm/2003">
 <defs>
  <style type="text/css">
   <![CDATA[
    .str0 {stroke:#FEFEFE;stroke-width:9.97;stroke-miterlimit:22.9256}
    .fil0 {fill:#FEFEFE;fill-rule:nonzero}
   ]]>
  </style>
 </defs>
 <g id="Capa_x0020_1">
  <metadata id="CorelCorpID_0Corel-Layer"/>
  <g id="_2930410764464">
   <path class="fil0 str0" d="M1227.37 709.19c-12.34,-42.8 -29.63,-80.67 -51.86,-113.6 -22.22,-32.92 -49.38,-60.91 -81.08,-84.37 -31.69,-23.05 -68.32,-40.75 -108.66,-53.09 -40.74,-11.93 -85.61,-18.11 -134.58,-18.11 -91.78,0 -172.45,22.63 -241.6,68.32 -69.56,45.69 -123.47,111.95 -161.74,198.8 -38.69,86.43 -58.04,192.61 -58.04,317.74 0,125.12 18.93,231.31 56.8,318.97 38.28,88.08 91.78,154.75 161.34,200.44 69.56,46.09 151.87,69.15 246.53,69.15 86.03,0 159.7,-15.64 220.61,-46.09 60.91,-30.87 107.83,-74.08 140.35,-130.48 32.51,-55.98 48.57,-122.23 48.57,-198.79l77.37 11.11 -463.02 0 0 -285.63 751.54 0 0 225.96c0,158.05 -33.34,293.46 -100.02,406.63 -66.67,113.19 -158.45,200.44 -275.34,261.36 -116.9,60.91 -251.07,91.78 -401.71,91.78 -168.33,0 -316.5,-37.46 -443.68,-111.95 -127.59,-74.5 -226.78,-180.69 -297.98,-318.15 -70.79,-137.87 -106.19,-301.27 -106.19,-491.02 0,-145.28 20.99,-275.34 63.38,-389.76 42.39,-114 102.07,-211.14 178.62,-290.58 76.54,-79.44 165.45,-139.94 267.11,-181.51 102.07,-41.57 211.96,-62.15 330.91,-62.15 101.66,0 196.32,14.82 283.98,44.04 87.67,29.63 165.46,71.2 233.78,125.12 67.91,53.91 123.89,117.7 167.1,191.38 43.22,74.09 70.79,155.58 83.15,244.48l-385.66 0zm1544.25 642.06l0 -773.76 373.71 0 0 1347.1 -358.89 0 0 -244.48 -14 0c-30.45,78.62 -80.67,142 -151.05,190.15 -70.79,47.75 -156.4,72.03 -257.65,72.03 -90.13,0 -169.16,-20.58 -237.48,-61.74 -68.32,-40.74 -121.82,-98.78 -160.1,-174.51 -38.28,-75.32 -57.62,-165.45 -58.45,-270.82l0 -857.73 373.71 0 0 791.05c0.42,79.44 21.82,142.41 63.8,188.51 42.39,46.09 98.78,69.56 169.57,69.56 44.86,0 86.83,-10.7 125.94,-31.28 39.51,-20.58 71.2,-51.45 95.49,-92.61 24.28,-40.75 35.8,-91.37 35.4,-151.46zm672.52 573.33l-0.83 -1347.1 373.71 0 0 1347.1 -372.88 0zm52.68 -1520.79l186.03 -398.82 345.31 0 -267.11 398.82 -264.23 0zm1002.19 1546.3c-85.61,0 -162.16,-15.23 -229.65,-45.27 -67.09,-30.05 -120.19,-74.91 -159.28,-134.18 -38.7,-59.28 -58.04,-133.36 -58.04,-222.26 0,-74.91 13.59,-137.87 41.16,-188.51 27.58,-51.03 65.03,-91.78 112.36,-122.65 47.33,-31.28 101.25,-54.74 161.75,-70.38 60.5,-15.63 123.89,-26.75 190.56,-33.33 78.61,-8.24 141.58,-16.05 189.33,-23.05 48.15,-7.41 82.73,-18.52 104.53,-32.92 21.82,-14.82 32.51,-36.22 32.51,-65.03l0 -5.35c0,-55.57 -17.28,-98.37 -52.27,-128.82 -34.57,-30.46 -83.96,-45.69 -147.76,-45.69 -67.09,0 -120.6,14.82 -160.52,44.45 -39.51,29.63 -65.86,66.27 -79.03,110.71l-345.31 -27.99c17.29,-81.9 51.87,-152.69 103.31,-212.38 51.45,-60.09 118.12,-106.19 199.62,-138.7 81.49,-32.51 176.15,-48.57 283.58,-48.57 74.91,0 146.52,8.64 215.26,26.34 68.73,17.29 130.06,44.45 183.56,81.49 53.51,36.63 95.49,83.96 126.77,141.58 30.87,57.62 46.1,126.36 46.1,206.61l0 908.36 -353.96 0 0 -186.86 -10.71 0c-21.4,41.99 -50.62,79.03 -86.84,111.13 -36.21,31.69 -79.85,56.38 -130.47,74.49 -51.04,17.7 -109.89,26.75 -176.57,26.75zm107.02 -258.06c55.15,0 103.71,-10.7 145.7,-32.92 41.98,-21.82 75.32,-51.45 99.19,-88.9 23.87,-37.46 35.8,-79.85 35.8,-127.18l0 -142.82c-11.53,7.41 -27.58,14.41 -47.74,20.58 -20.17,6.17 -42.8,11.53 -67.91,16.87 -25.11,4.94 -50.21,9.05 -75.32,12.76 -25.11,4.12 -48.16,7.41 -68.33,10.29 -44.04,6.58 -82.31,16.46 -115.24,30.87 -32.51,13.99 -58.03,32.51 -76.14,56.38 -18.12,23.87 -27.17,53.09 -27.17,88.08 0,51.03 18.53,89.72 55.57,116.06 37.04,26.75 84.37,39.92 141.58,39.92zm2010.97 254.36c-102.07,0 -194.67,-26.34 -277.4,-79.44 -82.73,-52.69 -148.16,-130.89 -196.32,-233.78 -48.57,-103.31 -72.44,-230.06 -72.44,-380.29 0,-154.35 24.7,-282.76 74.5,-385.66 49.79,-102.48 115.65,-179.44 198.38,-230.48 82.73,-51.04 173.69,-76.55 272.47,-76.55 75.32,0 138.29,12.76 188.91,37.87 50.62,25.51 91.78,57.21 123.06,94.66 31.29,37.87 54.75,74.91 71.21,111.12l11.52 0 0 -675.4 372.48 0 0 1796.14 -367.95 0 0 -215.67 -16.05 0c-17.29,37.45 -41.99,74.49 -74.09,110.71 -31.69,36.63 -72.85,67.08 -123.47,90.96 -50.63,23.87 -112.36,35.8 -184.81,35.8zm118.54 -297.17c60.09,0 111.12,-16.46 153.11,-49.38 41.57,-33.34 73.67,-79.44 96.31,-139.11 22.63,-59.68 33.75,-129.65 33.75,-209.49 0,-80.26 -11.12,-149.82 -33.34,-208.68 -22.22,-59.27 -54.33,-104.95 -96.31,-137.06 -42.4,-32.11 -93.43,-48.15 -153.52,-48.15 -61.33,0 -113.19,16.46 -155.16,49.79 -42.4,33.34 -74.09,79.85 -95.9,138.7 -21.41,59.28 -32.11,127.59 -32.11,205.39 0,78.2 10.7,147.34 32.92,207.43 21.82,59.68 53.5,106.6 95.49,139.94 41.57,33.75 93.43,50.62 154.75,50.62zm1568.12 301.69c-138.7,0 -257.64,-28.4 -357.66,-84.79 -99.61,-56.38 -176.16,-136.23 -230.07,-239.94 -53.92,-104.13 -80.67,-226.78 -80.67,-368.78 0,-138.7 26.75,-260.53 80.67,-365.08 53.91,-104.54 129.65,-186.03 227.6,-244.47 97.96,-58.45 212.78,-87.67 344.91,-87.67 88.9,0 172.04,14 249.01,42.4 76.55,28.4 144.05,70.79 201.67,127.58 57.21,56.8 102.49,128 134.59,213.61 32.1,85.61 48.15,185.62 48.15,300.46l0 102.48 -1137.6 0 0 -231.72 785.71 0c0,-53.5 -11.53,-101.24 -34.99,-142.82 -23.46,-41.57 -55.57,-74.08 -96.73,-97.54 -41.15,-23.87 -89.31,-35.8 -143.64,-35.8 -56.38,0 -106.6,13.17 -150.23,39.1 -43.62,25.92 -77.78,60.91 -102.07,104.53 -24.7,43.22 -37.04,91.79 -37.87,144.88l0 220.19c0,66.67 12.35,124.29 37.46,172.86 24.7,48.57 60.09,86.02 105.36,111.95 45.69,26.34 100.02,39.51 162.57,39.51 41.16,0 79.44,-5.76 114.01,-17.29 34.16,-11.93 63.79,-29.22 88.49,-52.69 24.28,-23.46 43.21,-52.27 55.98,-86.02l345.72 22.63c-17.7,83.15 -53.5,155.58 -107.42,217.32 -54.33,61.73 -123.89,109.48 -208.67,143.64 -85.2,34.16 -183.15,51.45 -294.28,51.45zm1442.17 -26.34l-0.82 -1796.14 1210.45 0 0 313.22 -830.57 -0.83 0 428.87 768.01 0 0 312.8 -768.01 -0.83 0 429.7 833.87 0.82 0 312.39 -1212.93 0zm2625.47 -962.69l-342.02 21c-5.76,-29.22 -18.11,-55.98 -37.46,-79.44 -19.34,-23.87 -44.86,-42.8 -76.14,-57.21 -31.28,-13.99 -68.32,-21.4 -111.54,-21.4 -58.03,0 -107.01,12.34 -146.52,36.62 -39.92,23.88 -59.68,56.39 -59.68,96.73 0,32.11 12.76,59.27 38.7,81.49 25.51,22.22 69.56,39.92 132.11,53.5l244.07 48.99c130.88,27.16 228.43,70.37 292.63,130.06 64.62,59.67 96.73,137.87 96.73,235.01 0,88.08 -25.93,165.45 -77.79,232.13 -51.45,66.68 -122.24,118.54 -211.97,155.99 -89.73,37.04 -193.03,55.57 -310.33,55.57 -178.22,0 -320.21,-37.46 -425.58,-111.95 -105.36,-74.5 -167.51,-176.15 -185.61,-304.56l367.54 -19.35c11.11,54.33 37.86,95.9 80.66,123.89 42.8,28.41 97.54,42.8 164.23,42.8 65.44,0 118.12,-12.75 158.05,-38.28 39.92,-25.51 60.5,-58.44 60.91,-98.78 -0.41,-33.74 -14.82,-61.73 -42.8,-83.54 -27.99,-21.82 -71.2,-38.69 -130.06,-50.62l-232.95 -46.51c-131.7,-25.93 -229.25,-71.62 -293.46,-136.65 -64.2,-65.03 -95.9,-147.76 -95.9,-248.18 0,-86.43 23.46,-160.93 70.38,-223.48 47.33,-62.57 113.6,-110.71 199.2,-144.88 85.61,-33.74 186.03,-50.62 301.27,-50.62 169.98,0 304.16,35.8 402.12,107.83 97.95,71.62 154.75,169.57 171.22,293.87zm875.44 989.03c-137.88,0 -256.42,-29.22 -355.6,-88.08 -99.2,-58.86 -175.33,-140.35 -228.02,-245.3 -53.09,-104.54 -79.44,-225.14 -79.44,-361.37 0,-137.88 26.75,-258.89 80.26,-363.42 53.5,-104.13 129.64,-185.62 228.42,-244.48 98.78,-58.86 216.49,-88.08 352.73,-88.08 117.3,0 220.19,21.41 308.68,63.79 88.07,42.8 158.05,102.49 209.49,179.86 51.45,76.96 79.85,167.93 85.2,271.64l-352.73 0c-9.87,-67.08 -36.21,-121.41 -78.61,-162.57 -42.4,-41.16 -97.54,-61.74 -165.86,-61.74 -58.04,0 -108.66,15.64 -151.46,46.92 -42.8,31.28 -76.55,76.55 -100.42,136.24 -23.87,59.67 -35.8,132.11 -35.8,216.9 0,85.61 11.52,158.86 35.4,218.96 23.87,60.5 57.2,106.19 100.42,137.87 43.21,31.7 93.83,47.34 151.87,47.34 42.39,0 81.08,-8.64 115.24,-26.34 34.16,-17.7 62.56,-43.22 84.78,-76.55 22.64,-33.75 37.46,-74.5 44.45,-121.83l352.73 0c-6.18,102.9 -33.75,193.44 -83.96,271.64 -49.8,78.2 -118.95,139.12 -206.61,182.74 -87.67,44.04 -191.39,65.86 -311.15,65.86zm1225.67 -0.83c-85.61,0 -162.16,-15.23 -229.65,-45.27 -67.09,-30.05 -120.19,-74.91 -159.28,-134.18 -38.7,-59.28 -58.04,-133.36 -58.04,-222.26 0,-74.91 13.59,-137.87 41.16,-188.51 27.58,-51.03 65.03,-91.78 112.36,-122.65 47.33,-31.28 101.25,-54.74 161.75,-70.38 60.5,-15.63 123.89,-26.75 190.56,-33.33 78.61,-8.24 141.58,-16.05 189.33,-23.05 48.15,-7.41 82.73,-18.52 104.53,-32.92 21.82,-14.82 32.51,-36.22 32.51,-65.03l0 -5.35c0,-55.57 -17.28,-98.37 -52.27,-128.82 -34.57,-30.46 -83.96,-45.69 -147.76,-45.69 -67.09,0 -120.6,14.82 -160.52,44.45 -39.51,29.63 -65.86,66.27 -79.03,110.71l-345.31 -27.99c17.29,-81.9 51.87,-152.69 103.31,-212.38 51.45,-60.09 118.12,-106.19 199.62,-138.7 81.49,-32.51 176.15,-48.57 283.58,-48.57 74.91,0 146.52,8.64 215.26,26.34 68.73,17.29 130.06,44.45 183.56,81.49 53.51,36.63 95.49,83.96 126.77,141.58 30.87,57.62 46.1,126.36 46.1,206.61l0 908.36 -353.96 0 0 -186.86 -10.71 0c-21.4,41.99 -50.62,79.03 -86.84,111.13 -36.21,31.69 -79.85,56.38 -130.47,74.49 -51.04,17.7 -109.89,26.75 -176.57,26.75zm107.02 -258.06c55.15,0 103.71,-10.7 145.7,-32.92 41.98,-21.82 75.32,-51.45 99.19,-88.9 23.87,-37.46 35.8,-79.85 35.8,-127.18l0 -142.82c-11.53,7.41 -27.58,14.41 -47.74,20.58 -20.17,6.17 -42.8,11.53 -67.91,16.87 -25.11,4.94 -50.21,9.05 -75.32,12.76 -25.11,4.12 -48.16,7.41 -68.33,10.29 -44.04,6.58 -82.31,16.46 -115.24,30.87 -32.51,13.99 -58.03,32.51 -76.14,56.38 -18.12,23.87 -27.17,53.09 -27.17,88.08 0,51.03 18.53,89.72 55.57,116.06 37.04,26.75 84.37,39.92 141.58,39.92zm1315.81 -1563.59l0 1796.14 -372.88 0 -0.83 -1796.14 373.71 0zm681.98 1821.65c-85.61,0 -162.16,-15.23 -229.65,-45.27 -67.09,-30.05 -120.19,-74.91 -159.28,-134.18 -38.7,-59.28 -58.04,-133.36 -58.04,-222.26 0,-74.91 13.59,-137.87 41.16,-188.51 27.58,-51.03 65.03,-91.78 112.36,-122.65 47.33,-31.28 101.25,-54.74 161.75,-70.38 60.5,-15.63 123.89,-26.75 190.56,-33.33 78.61,-8.24 141.58,-16.05 189.33,-23.05 48.15,-7.41 82.73,-18.52 104.53,-32.92 21.82,-14.82 32.51,-36.22 32.51,-65.03l0 -5.35c0,-55.57 -17.28,-98.37 -52.27,-128.82 -34.57,-30.46 -83.96,-45.69 -147.76,-45.69 -67.09,0 -120.6,14.82 -160.52,44.45 -39.51,29.63 -65.86,66.27 -79.03,110.71l-345.31 -27.99c17.29,-81.9 51.87,-152.69 103.31,-212.38 51.45,-60.09 118.12,-106.19 199.62,-138.7 81.49,-32.51 176.15,-48.57 283.58,-48.57 74.91,0 146.52,8.64 215.26,26.34 68.73,17.29 130.06,44.45 183.56,81.49 53.51,36.63 95.49,83.96 126.77,141.58 30.87,57.62 46.1,126.36 46.1,206.61l0 908.36 -353.96 0 0 -186.86 -10.71 0c-21.4,41.99 -50.62,79.03 -86.84,111.13 -36.21,31.69 -79.85,56.38 -130.47,74.49 -51.04,17.7 -109.89,26.75 -176.57,26.75zm107.02 -258.06c55.15,0 103.71,-10.7 145.7,-32.92 41.98,-21.82 75.32,-51.45 99.19,-88.9 23.87,-37.46 35.8,-79.85 35.8,-127.18l0 -142.82c-11.53,7.41 -27.58,14.41 -47.74,20.58 -20.17,6.17 -42.8,11.53 -67.91,16.87 -25.11,4.94 -50.21,9.05 -75.32,12.76 -25.11,4.12 -48.16,7.41 -68.33,10.29 -44.04,6.58 -82.31,16.46 -115.24,30.87 -32.51,13.99 -58.03,32.51 -76.14,56.38 -18.12,23.87 -27.17,53.09 -27.17,88.08 0,51.03 18.53,89.72 55.57,116.06 37.04,26.75 84.37,39.92 141.58,39.92zm1438.46 254.36c-102.07,0 -194.67,-26.34 -277.4,-79.44 -82.73,-52.69 -148.16,-130.89 -196.32,-233.78 -48.57,-103.31 -72.44,-230.06 -72.44,-380.29 0,-154.35 24.7,-282.76 74.5,-385.66 49.79,-102.48 115.65,-179.44 198.38,-230.48 82.73,-51.04 173.69,-76.55 272.47,-76.55 75.32,0 138.29,12.76 188.91,37.87 50.62,25.51 91.78,57.21 123.06,94.66 31.29,37.87 54.75,74.91 71.21,111.12l11.52 0 0 -675.4 372.48 0 0 1796.14 -367.95 0 0 -215.67 -16.05 0c-17.29,37.45 -41.99,74.49 -74.09,110.71 -31.69,36.63 -72.85,67.08 -123.47,90.96 -50.63,23.87 -112.36,35.8 -184.81,35.8zm118.54 -297.17c60.09,0 111.12,-16.46 153.11,-49.38 41.57,-33.34 73.67,-79.44 96.31,-139.11 22.63,-59.68 33.75,-129.65 33.75,-209.49 0,-80.26 -11.12,-149.82 -33.34,-208.68 -22.22,-59.27 -54.33,-104.95 -96.31,-137.06 -42.4,-32.11 -93.43,-48.15 -153.52,-48.15 -61.33,0 -113.19,16.46 -155.16,49.79 -42.4,33.34 -74.09,79.85 -95.9,138.7 -21.41,59.28 -32.11,127.59 -32.11,205.39 0,78.2 10.7,147.34 32.92,207.43 21.82,59.68 53.5,106.6 95.49,139.94 41.57,33.75 93.43,50.62 154.75,50.62zm1338.04 300.87c-85.61,0 -162.16,-15.23 -229.65,-45.27 -67.09,-30.05 -120.19,-74.91 -159.28,-134.18 -38.7,-59.28 -58.04,-133.36 -58.04,-222.26 0,-74.91 13.59,-137.87 41.16,-188.51 27.58,-51.03 65.03,-91.78 112.36,-122.65 47.33,-31.28 101.25,-54.74 161.75,-70.38 60.5,-15.63 123.89,-26.75 190.56,-33.33 78.61,-8.24 141.58,-16.05 189.33,-23.05 48.15,-7.41 82.73,-18.52 104.53,-32.92 21.82,-14.82 32.51,-36.22 32.51,-65.03l0 -5.35c0,-55.57 -17.28,-98.37 -52.27,-128.82 -34.57,-30.46 -83.96,-45.69 -147.76,-45.69 -67.09,0 -120.6,14.82 -160.52,44.45 -39.51,29.63 -65.86,66.27 -79.03,110.71l-345.31 -27.99c17.29,-81.9 51.87,-152.69 103.31,-212.38 51.45,-60.09 118.12,-106.19 199.62,-138.7 81.49,-32.51 176.15,-48.57 283.58,-48.57 74.91,0 146.52,8.64 215.26,26.34 68.73,17.29 130.06,44.45 183.56,81.49 53.51,36.63 95.49,83.96 126.77,141.58 30.87,57.62 46.1,126.36 46.1,206.61l0 908.36 -353.96 0 0 -186.86 -10.71 0c-21.4,41.99 -50.62,79.03 -86.84,111.13 -36.21,31.69 -79.85,56.38 -130.47,74.49 -51.04,17.7 -109.89,26.75 -176.57,26.75zm107.02 -258.06c55.15,0 103.71,-10.7 145.7,-32.92 41.98,-21.82 75.32,-51.45 99.19,-88.9 23.87,-37.46 35.8,-79.85 35.8,-127.18l0 -142.82c-11.53,7.41 -27.58,14.41 -47.74,20.58 -20.17,6.17 -42.8,11.53 -67.91,16.87 -25.11,4.94 -50.21,9.05 -75.32,12.76 -25.11,4.12 -48.16,7.41 -68.33,10.29 -44.04,6.58 -82.31,16.46 -115.24,30.87 -32.51,13.99 -58.03,32.51 -76.14,56.38 -18.12,23.87 -27.17,53.09 -27.17,88.08 0,51.03 18.53,89.72 55.57,116.06 37.04,26.75 84.37,39.92 141.58,39.92z"/>
   <path class="fil0" d="M2805.05 2772.49l0 -124.02 585.61 0 0 124.34 -218.3 -0.33 0 589.05 -148.69 0 -0.33 -588.72 -218.29 -0.33zm1336.67 589.05l-161.44 0 246.08 -713.06 194.28 0 245.75 713.06 -161.44 0 -178.58 -549.99 -5.56 0 -179.08 549.99zm-9.96 -280.23l381.53 0 0 117.64 -381.53 0 0 -117.64zm1239.78 280.23l-0.33 -713.06 471.72 0 0.33 124.34 -321.24 -0.33 0 170.26 290.03 0 0 124.18 -290.03 -0.33 0 294.93 -150.49 0zm1343.05 -713.06l0 713.06 -150.49 0 -0.33 -713.06 150.82 0zm1450.72 713.06l-252.78 0 0 -713.06 254.9 0c71.73,0 133.49,14.22 185.13,42.64 51.8,28.44 91.66,69.29 119.61,122.39 27.94,53.26 41.99,116.83 41.99,190.85 0,74.18 -14.05,138.06 -41.99,191.5 -27.95,53.26 -67.98,94.28 -120.1,122.87 -52.13,28.6 -114.38,42.81 -186.76,42.81zm-101.96 -129.08l95.75 0c44.61,0 82.03,-8.01 112.58,-23.86 30.56,-16.01 53.43,-40.68 68.96,-74.18 15.35,-33.66 23.2,-76.95 23.2,-130.06 0,-52.78 -7.85,-95.76 -23.2,-129.25 -15.52,-33.33 -38.4,-58.01 -68.8,-73.69 -30.39,-15.85 -67.8,-23.69 -112.41,-23.69l-96.08 0 0 454.73zm1181.78 129.08l-0.33 -713.06 480.55 0 0 124.34 -329.73 -0.33 0 170.26 304.89 0 0 124.18 -304.89 -0.33 0 170.59 331.04 0.33 0 124.02 -481.52 0zm1219.69 0l-0.33 -713.06 150.82 0 0 588.72 305.22 0.33 0.49 124.02 -456.2 0zm1758.73 -713.06l172.21 541.83 6.7 0 172.71 -541.83 166.99 0 -245.75 713.06 -194.28 0 -246.08 -713.06 167.49 0zm1251.71 713.06l-161.44 0 246.08 -713.06 194.28 0 245.75 713.06 -161.44 0 -178.58 -549.99 -5.56 0 -179.08 549.99zm-9.96 -280.23l381.53 0 0 117.64 -381.53 0 0 -117.64zm1239.78 280.23l-0.33 -713.06 150.82 0 0 588.72 305.22 0.33 0.49 124.02 -456.2 0zm1175.57 0l-0.33 -713.06 150.82 0 0 588.72 305.22 0.33 0.49 124.02 -456.2 0zm1175.57 0l-0.33 -713.06 480.55 0 0 124.34 -329.73 -0.33 0 170.26 304.89 0 0 124.18 -304.89 -0.33 0 170.59 331.04 0.33 0 124.02 -481.52 0z"/>
  </g>
 </g>
</svg>
